Coordinates
version=1
nRows=15
nColumns=38
inDegrees=yes

Units are S.I. units (second, meters, Newtons, ...)
Angles are in degrees.

endheader
time	pelvis_tilt	pelvis_list	pelvis_rotation	pelvis_tx	pelvis_ty	pelvis_tz	hip_flexion_r	hip_adduction_r	hip_rotation_r	knee_angle_r	ankle_angle_r	subtalar_angle_r	mtp_angle_r	hip_flexion_l	hip_adduction_l	hip_rotation_l	knee_angle_l	ankle_angle_l	subtalar_angle_l	mtp_angle_l	lumbar_extension	lumbar_bending	lumbar_rotation	arm_flex_r	arm_add_r	arm_rot_r	elbow_flex_r	pro_sup_r	wrist_flex_r	wrist_dev_r	arm_flex_l	arm_add_l	arm_rot_l	elbow_flex_l	pro_sup_l	wrist_flex_l	wrist_dev_l
      2.19500000	      2.25967691	     -6.64278271	     83.57004022	     -0.25832413	      1.05019244	     -0.52690351	     10.40457323	      7.84805747	      8.18509172	    -38.78496972	     23.31873613	      0.00000000	      0.00000000	     37.35356172	     -7.30272898	     -5.22385019	   -101.03711742	     -0.99944280	      0.00000000	      0.00000000	    -17.53065684	      0.75425716	     16.12439663	      0.00000000	      0.00000000	      0.00000000	     90.00000000	     90.00000000	      0.00000000	      0.00000000	      0.00000000	      0.00000000	      0.00000000	     90.00000000	     90.00000000	      0.00000000	      0.00000000
      2.20000000	      1.88185556	     -7.01676825	     83.45061891	     -0.25801142	      1.05286711	     -0.52749412	      9.24600810	      7.34458056	      8.66966013	    -37.50646566	     22.61492973	      0.00000000	      0.00000000	     38.51192044	     -7.05474784	     -5.35696227	    -99.53921193	     -0.72438270	      0.00000000	      0.00000000	    -16.85340016	      0.15855869	     16.97966340	      0.00000000	      0.00000000	      0.00000000	     90.00000000	     90.00000000	      0.00000000	      0.00000000	      0.00000000	      0.00000000	      0.00000000	     90.00000000	     90.00000000	      0.00000000	      0.00000000
      2.20500000	      1.46388812	     -7.39909340	     83.37485761	     -0.25784247	      1.05576077	     -0.52823573	      8.10732692	      6.77353171	      9.08078735	    -36.19460732	     21.76329406	      0.00000000	      0.00000000	     39.60323177	     -6.72586969	     -5.48566142	    -97.89697565	     -0.46671547	      0.00000000	      0.00000000	    -16.15417649	     -0.45431184	     17.73224379	      0.00000000	      0.00000000	      0.00000000	     90.00000000	     90.00000000	      0.00000000	      0.00000000	      0.00000000	      0.00000000	      0.00000000	     90.00000000	     90.00000000	      0.00000000	      0.00000000
      2.21000000	      1.01548765	     -7.78753286	     83.34716816	     -0.25780717	      1.05884866	     -0.52912080	      6.99148904	      6.14599936	      9.39832997	    -34.85692657	     20.76013066	      0.00000000	      0.00000000	     40.62426480	     -6.32312825	     -5.60492056	    -96.11407546	     -0.23166167	      0.00000000	      0.00000000	    -15.43929941	     -1.07599652	     18.37350018	      0.00000000	      0.00000000	      0.00000000	     90.00000000	     90.00000000	      0.00000000	      0.00000000	      0.00000000	      0.00000000	      0.00000000	     90.00000000	     90.00000000	      0.00000000	      0.00000000
      2.21500000	      0.54622448	     -8.18084909	     83.36960062	     -0.25789389	      1.06210273	     -0.53013860	      5.89972511	      5.47439992	      9.60435070	    -33.49835452	     19.60141610	      0.00000000	      0.00000000	     41.57251856	     -5.85540677	     -5.71085486	    -94.19359041	     -0.02359055	      0.00000000	      0.00000000	    -14.71410319	     -1.69915535	     18.89836499	      0.00000000	      0.00000000	      0.00000000	     90.00000000	     90.00000000	      0.00000000	      0.00000000	      0.00000000	      0.00000000	      0.00000000	     90.00000000	     90.00000000	      0.00000000	      0.00000000
      2.22000000	      0.06510758	     -8.57862187	     83.44176426	     -0.25809066	      1.06549445	     -0.53127787	      4.83167698	      4.77176320	      9.68416590	    -32.12136838	     18.28274937	      0.00000000	      0.00000000	     42.44586144	     -5.33291467	     -5.80064678	    -92.13826117	      0.15450744	      0.00000000	      0.00000000	    -13.98312547	     -2.31749427	     19.30557246	      0.00000000	      0.00000000	      0.00000000	     90.00000000	     90.00000000	      0.00000000	      0.00000000	      0.00000000	      0.00000000	      0.00000000	     90.00000000	     90.00000000	      0.00000000	      0.00000000
      2.22500000	     -0.41956808	     -8.98080299	     83.56089627	     -0.25838460	      1.06899638	     -0.53252943	      3.78580327	      4.05104902	      9.62738189	    -30.72657902	     16.79947906	      0.00000000	      0.00000000	     43.24222401	     -4.76668031	     -5.87242178	    -89.95081013	      0.30136598	      0.00000000	      0.00000000	    -13.25041533	     -2.92566868	     19.59769290	      0.00000000	      0.00000000	      0.00000000	     90.00000000	     90.00000000	      0.00000000	      0.00000000	      0.00000000	      0.00000000	      0.00000000	     90.00000000	     90.00000000	      0.00000000	      0.00000000
      2.23000000	     -0.90021853	     -9.38712293	     83.72205258	     -0.25876157	      1.07258157	     -0.53388747	      2.75991801	      3.32461118	      9.42886258	    -29.31373895	     15.14709234	      0.00000000	      0.00000000	     43.95935428	     -4.16812522	     -5.92504400	    -87.63423937	      0.41757815	      0.00000000	      0.00000000	    -12.51991398	     -3.51907945	     19.78097012	      0.00000000	      0.00000000	      0.00000000	     90.00000000	     90.00000000	      0.00000000	      0.00000000	      0.00000000	      0.00000000	      0.00000000	     90.00000000	     90.00000000	      0.00000000	      0.00000000
      2.23500000	     -1.36990564	     -9.79654796	     83.91840312	     -0.25920657	      1.07622260	     -0.53534734	      1.75173436	      2.60389664	      9.08956535	    -27.88310397	     13.32194041	      0.00000000	      0.00000000	     44.59457895	     -3.54873395	     -5.95781600	    -85.19206176	      0.50552221	      0.00000000	      0.00000000	    -11.79585218	     -4.09358388	     19.86497442	      0.00000000	      0.00000000	      0.00000000	     90.00000000	     90.00000000	      0.00000000	      0.00000000	      0.00000000	      0.00000000	      0.00000000	     90.00000000	     90.00000000	      0.00000000	      0.00000000
      2.24000000	     -1.82223815	    -10.20690663	     84.14162196	     -0.25970451	      1.07989187	     -0.53690016	      0.75930460	      1.89938838	      8.61718203	    -26.43702763	     11.32234778	      0.00000000	      0.00000000	     45.14456994	     -2.91980948	     -5.97009638	    -82.62843085	      0.56910781	      0.00000000	      0.00000000	    -11.08310770	     -4.64515177	     19.86209422	      0.00000000	      0.00000000	      0.00000000	     90.00000000	     90.00000000	      0.00000000	      0.00000000	      0.00000000	      0.00000000	      0.00000000	     90.00000000	     90.00000000	      0.00000000	      0.00000000
      2.24500000	     -2.25122040	    -10.61464003	     84.38236064	     -0.26024087	      1.08356317	     -0.53852819	     -0.21869988	      1.22072593	      8.02652019	    -24.98159711	      9.15010596	      0.00000000	      0.00000000	     45.60520665	     -2.29230825	     -5.96087122	    -79.94813442	      0.61338676	      0.00000000	      0.00000000	    -10.38746792	     -5.16950578	     19.78689800	      0.00000000	      0.00000000	      0.00000000	     90.00000000	     90.00000000	      0.00000000	      0.00000000	      0.00000000	      0.00000000	      0.00000000	     90.00000000	     90.00000000	      0.00000000	      0.00000000
      2.25000000	     -2.65104166	    -11.01461120	     84.63080064	     -0.26080195	      1.08721286	     -0.54020475	     -1.18284881	      0.57690121	      7.33955405	    -23.52805119	      6.81229061	      0.00000000	      0.00000000	     45.97157191	     -1.67676503	     -5.92832545	    -77.15646012	      0.64406472	      0.00000000	      0.00000000	     -9.71575508	     -5.66179164	     19.65540505	      0.00000000	      0.00000000	      0.00000000	     90.00000000	     90.00000000	      0.00000000	      0.00000000	      0.00000000	      0.00000000	      0.00000000	     90.00000000	     90.00000000	      0.00000000	      0.00000000
      2.25500000	     -3.01583009	    -11.39999949	     84.87728134	     -0.26137450	      1.09081913	     -0.54189903	     -2.13289664	     -0.02356345	      6.58506692	    -22.09370197	      4.32326687	      0.00000000	      0.00000000	     46.23802058	     -1.08331809	     -5.86947259	    -74.25898867	      0.66693865	      0.00000000	      0.00000000	     -9.07579456	     -6.11632723	     19.48430718	      0.00000000	      0.00000000	      0.00000000	     90.00000000	     90.00000000	      0.00000000	      0.00000000	      0.00000000	      0.00000000	      0.00000000	     90.00000000	     90.00000000	      0.00000000	      0.00000000
      2.26000000	     -3.33942876	    -11.76235842	     85.11296076	     -0.26194499	      1.09435923	     -0.54358379	     -3.06780223	     -0.57249578	      5.79780399	    -20.70214558	      1.70665870	      0.00000000	      0.00000000	     46.39828103	     -0.52182191	     -5.77991925	    -71.26137753	      0.68728853	      0.00000000	      0.00000000	     -8.47622669	     -6.52648075	     19.29018622	      0.00000000	      0.00000000	      0.00000000	     90.00000000	     90.00000000	      0.00000000	      0.00000000	      0.00000000	      0.00000000	      0.00000000	     90.00000000	     90.00000000	      0.00000000	      0.00000000
      2.26500000	     -3.61526619	    -12.09192422	     85.33041209	     -0.26249929	      1.09780623	     -0.54524193	     -3.98589395	     -1.06200063	      5.01706550	    -19.38266713	     -1.00302462	      0.00000000	      0.00000000	     46.44563000	     -0.00200127	     -5.65384744	    -68.16918958	      0.70927120	      0.00000000	      0.00000000	     -7.92618012	     -6.88472330	     19.08877117	      0.00000000	      0.00000000	      0.00000000	     90.00000000	     90.00000000	      0.00000000	      0.00000000	      0.00000000	      0.00000000	      0.00000000	     90.00000000	     90.00000000	      0.00000000	      0.00000000
